P2
# lena.pgma created by PGMA_IO::PGMA_WRITE.
5 6
255
10 1 1 2 20
1 1 1 3 4
1 1 1 4 4
2 3 4 4 5
3 4 4 5 5
30 4 5 5 40